<svg xmlns="http://www.w3.org/2000/svg" viewBox="0 0 256 315">
  <path d="M213.8 150.5c.2-35.8 29.3-53 30.6-53.8-16.6-24.3-42.4-27.6-51.7-28-22.1-2.3-43.2 13.1-54.4 13.1-11.2 0-28.5-12.9-47-12.5-24.3.4-46.7 14.3-59.2 36-25.3 43.8-6.5 108.6 18.1 144.1 12 17.4 26.3 36.9 45.1 36.2 18.1-.7 24.9-11.7 46.8-11.7 21.8 0 28 11.7 46.9 11.3 19.3-.3 31.7-17.7 43.5-35 13.7-20 19.4-39.3 19.7-40.3-.4-.2-38.1-14.7-38.4-59.4zM176 38.3c9.9-12 16.6-28.7 14.8-45.3-14.3.6-31.6 9.5-41.9 21.6-9.2 10.6-17.3 27.8-15.1 43.8 15.8 1.2 32.2-8.1 42.2-20.1z" fill="black"/>
</svg>
